<?xml version="1.0" encoding="UTF-8"?>
<svg version="1.1" xmlns="http://www.w3.org/2000/svg" width="424" height="96">
<path d="M0 0 C1.60004883 0.01450195 1.60004883 0.01450195 3.23242188 0.02929688 C4.88661133 0.06700195 4.88661133 0.06700195 6.57421875 0.10546875 C7.69634766 0.11900391 8.81847656 0.13253906 9.97460938 0.14648438 C12.73747104 0.18175495 15.49934704 0.2310464 18.26171875 0.29296875 C16.72985601 5.03961297 15.21215405 9.71533463 13.07421875 14.23046875 C11.43403079 17.74515724 9.82422456 21.26882185 8.265625 24.8203125 C7.73908325 26.01829468 7.73908325 26.01829468 7.2019043 27.24047852 C6.50449834 28.82982242 5.80926331 30.42012113 5.11645508 32.01147461 C3.38159163 35.95083698 1.52089774 39.62015145 -0.73828125 43.29296875 C-1.41214825 45.11240965 -2.08378863 46.93271719 -2.7421875 48.7578125 C-5.37818584 55.46668671 -8.66579494 61.93629585 -11.76123047 68.44335938 C-12.79708307 70.62153128 -13.83096525 72.80061855 -14.86328125 74.98046875 C-15.36746582 76.04479126 -15.36746582 76.04479126 -15.88183594 77.13061523 C-18.36669569 82.41369095 -20.65569716 87.7479454 -22.828125 93.16796875 C-23.73828125 95.29296875 -23.73828125 95.29296875 -24.73828125 96.29296875 C-29.00020987 96.65805732 -33.27532949 96.66462271 -37.55078125 96.73046875 C-38.75283203 96.77623047 -39.95488281 96.82199219 -41.19335938 96.86914062 C-50.00461703 96.98216847 -50.00461703 96.98216847 -53.31640625 93.87109375 C-53.785625 92.6903125 -54.25484375 91.50953125 -54.73828125 90.29296875 C-55.05112061 89.56988525 -55.36395996 88.84680176 -55.6862793 88.10180664 C-56.74378729 85.62345478 -57.71491552 83.12276255 -58.67578125 80.60546875 C-61.8735639 72.40612127 -61.8735639 72.40612127 -65.42578125 64.35546875 C-67.69765541 59.4925943 -69.60515831 54.52496523 -71.5078125 49.5078125 C-74.18725165 42.50724607 -77.141711 35.63175194 -80.171875 28.77734375 C-80.61313721 27.77493652 -81.05439941 26.7725293 -81.5090332 25.73974609 C-82.39164819 23.7377519 -83.27926701 21.73795396 -84.17260742 19.74072266 C-86.83726091 13.6932748 -89.00804401 7.67202065 -90.73828125 1.29296875 C-86.53912818 1.19389617 -82.34059873 1.12140702 -78.140625 1.07324219 C-76.71277004 1.05315893 -75.284997 1.02588623 -73.85742188 0.99121094 C-71.80187757 0.94254206 -69.7474227 0.91996908 -67.69140625 0.90234375 C-66.45551758 0.88139648 -65.21962891 0.86044922 -63.94628906 0.83886719 C-60.1052066 1.38258206 -59.0474459 2.23812592 -56.73828125 5.29296875 C-55.62915039 7.30078125 -55.62915039 7.30078125 -54.7734375 9.41796875 C-54.45101074 10.20075195 -54.12858398 10.98353516 -53.79638672 11.79003906 C-53.46783691 12.61600586 -53.13928711 13.44197266 -52.80078125 14.29296875 C-52.45160645 15.14729492 -52.10243164 16.00162109 -51.74267578 16.88183594 C-51.04771613 18.58305601 -50.35653574 20.2858256 -49.66943359 21.99023438 C-48.51182262 24.85299963 -47.31417718 27.69812792 -46.11328125 30.54296875 C-44.21408466 35.1165442 -42.34214868 39.70086063 -40.48828125 44.29296875 C-40.22966309 44.92879883 -39.97104492 45.56462891 -39.70458984 46.21972656 C-38.50353146 49.21155577 -37.40180921 52.13331182 -36.73828125 55.29296875 C-36.07828125 55.29296875 -35.41828125 55.29296875 -34.73828125 55.29296875 C-34.35929687 54.05740234 -34.35929687 54.05740234 -33.97265625 52.796875 C-32.56278278 48.79479747 -30.82548959 45.05004223 -28.98828125 41.23046875 C-28.26385427 39.70985859 -27.53989983 38.18902323 -26.81640625 36.66796875 C-26.28370117 35.55035156 -26.28370117 35.55035156 -25.74023438 34.41015625 C-24.37723473 31.53005563 -23.05787348 28.63067146 -21.73828125 25.73046875 C-20.74189915 23.58295311 -19.74161298 21.43724628 -18.73828125 19.29296875 C-18.42358887 18.61218262 -18.10889648 17.93139648 -17.78466797 17.22998047 C-16.76374362 15.03501757 -15.72201087 12.8509671 -14.67578125 10.66796875 C-14.35931641 9.98017334 -14.04285156 9.29237793 -13.71679688 8.58374023 C-10.58179403 2.14073003 -7.13036435 -0.11439087 0 0 Z " fill="#1E365C" transform="translate(90.73828125,-0.29296875)"/>
<path d="M0 0 C16.5 0 33 0 50 0 C50 5.28 50 10.56 50 16 C39.77 16 29.54 16 19 16 C18.67 20.95 18.34 25.9 18 31 C27.24 31 36.48 31 46 31 C46 35.95 46 40.9 46 46 C32.635 46.495 32.635 46.495 19 47 C18.67 51.62 18.34 56.24 18 61 C28.56 61 39.12 61 50 61 C50.495 68.425 50.495 68.425 51 76 C34.17 76 17.34 76 0 76 C0 50.92 0 25.84 0 0 Z " fill="#B32330" transform="translate(107,20)"/>
<path d="M0 0 C6.88129861 3.94975351 11.58313656 9.71183586 14.625 17 C14.98067474 19.6879236 15.22127541 22.18517772 15.3125 24.875 C15.34666016 25.56335938 15.38082031 26.25171875 15.41601562 26.9609375 C15.49764091 28.64008613 15.5630157 30.32001168 15.625 32 C11.83657527 34.52561648 8.83966671 34.25391573 4.45703125 34.1953125 C3.26481209 34.19106766 3.26481209 34.19106766 2.04850769 34.18673706 C-0.48864838 34.17554705 -3.02545072 34.15044491 -5.5625 34.125 C-7.28319802 34.11496866 -9.00390159 34.10584308 -10.72460938 34.09765625 C-14.94154243 34.07561161 -19.15821125 34.04109006 -23.375 34 C-22.80724464 35.29858939 -22.22008337 36.58870441 -21.625 37.875 C-21.30015625 38.59429687 -20.9753125 39.31359375 -20.640625 40.0546875 C-19.11465984 42.40015247 -17.98228061 43.04528944 -15.375 44 C-11.28960142 44.55372761 -11.28960142 44.55372761 -7.375 44 C-6.47265625 43.17242187 -5.5703125 42.34484375 -4.640625 41.4921875 C-0.96322603 38.23285928 2.2702794 38.4095327 7 38.6875 C8.10408203 38.72133789 8.10408203 38.72133789 9.23046875 38.75585938 C11.02953842 38.81427073 12.82754753 38.90393663 14.625 39 C14.07756975 42.70320466 13.1964545 45.08020574 10.9375 48.0625 C10.22013672 49.03896484 10.22013672 49.03896484 9.48828125 50.03515625 C4.87720806 54.89756677 2.05980773 56.22763604 -4.65625 56.53125 C-7.06249925 56.54183856 -9.46892392 56.53074858 -11.875 56.5 C-13.08542969 56.51546875 -14.29585937 56.5309375 -15.54296875 56.546875 C-26.48720636 56.49871554 -26.48720636 56.49871554 -31.375 52 C-31.96667969 51.47019531 -32.55835938 50.94039062 -33.16796875 50.39453125 C-40.01738765 42.62418208 -40.96376153 34.86506386 -40.71875 24.65625 C-39.86934964 15.62171891 -35.92716398 9.15191867 -29.375 3 C-20.99901741 -3.12876775 -9.45204415 -4.29244207 0 0 Z M-21.125 15.4375 C-22.72339594 17.21306207 -22.72339594 17.21306207 -23.375 21 C-16.115 21 -8.855 21 -1.375 21 C-2.80287186 15.42011212 -2.80287186 15.42011212 -6.375 12 C-13.05075151 10.49257224 -15.80092816 11.06415527 -21.125 15.4375 Z " fill="#B52633" transform="translate(255.375,40)"/>
<path d="M0 0 C5.71513163 2.43668403 8.96424687 6.93020638 11.640625 12.421875 C12.92688264 17.13296051 12.76771534 21.8176029 12.73828125 26.66015625 C12.7368663 27.54092331 12.73545135 28.42169037 12.73399353 29.32914734 C12.72841437 32.13092503 12.71586571 34.93262162 12.703125 37.734375 C12.69810731 39.63867072 12.69354487 41.54296769 12.68945312 43.44726562 C12.67930441 48.10552483 12.65972495 52.76360955 12.640625 57.421875 C6.700625 57.421875 0.760625 57.421875 -5.359375 57.421875 C-5.41996094 54.64136719 -5.48054688 51.86085937 -5.54296875 48.99609375 C-5.60476376 46.3053924 -5.66814914 43.6147329 -5.73168945 40.92407227 C-5.77502122 39.05301634 -5.81669757 37.18192131 -5.85668945 35.31079102 C-5.91443449 32.62243869 -5.97811681 29.93428285 -6.04296875 27.24609375 C-6.05968124 26.40850021 -6.07639374 25.57090668 -6.09361267 24.70793152 C-6.17851561 21.38514212 -6.30188173 18.59435482 -7.359375 15.421875 C-15.54603098 14.14104482 -15.54603098 14.14104482 -23.359375 16.421875 C-24.64711946 20.28510838 -24.59320293 23.99678037 -24.67578125 28.02734375 C-24.69656235 28.86654861 -24.71734344 29.70575348 -24.73875427 30.57038879 C-24.80411518 33.24996794 -24.86307214 35.92964469 -24.921875 38.609375 C-24.96507302 40.42644237 -25.00868773 42.24349988 -25.05273438 44.06054688 C-25.16056668 48.51422434 -25.25973995 52.96797639 -25.359375 57.421875 C-30.969375 57.421875 -36.579375 57.421875 -42.359375 57.421875 C-42.359375 38.941875 -42.359375 20.461875 -42.359375 1.421875 C-36.749375 1.421875 -31.139375 1.421875 -25.359375 1.421875 C-25.359375 2.741875 -25.359375 4.061875 -25.359375 5.421875 C-24.73289062 5.07253906 -24.10640625 4.72320312 -23.4609375 4.36328125 C-22.64367187 3.90824219 -21.82640625 3.45320313 -20.984375 2.984375 C-20.17226563 2.53191406 -19.36015625 2.07945313 -18.5234375 1.61328125 C-12.77842361 -1.54958741 -6.37722652 -1.56263166 0 0 Z " fill="#B72734" transform="translate(319.359375,38.578125)"/>
<path d="M0 0 C1.60004883 0.01450195 1.60004883 0.01450195 3.23242188 0.02929688 C4.88661133 0.06700195 4.88661133 0.06700195 6.57421875 0.10546875 C7.69634766 0.11900391 8.81847656 0.13253906 9.97460938 0.14648438 C12.73747104 0.18175495 15.49934704 0.2310464 18.26171875 0.29296875 C16.72985601 5.03961297 15.21215405 9.71533463 13.07421875 14.23046875 C11.43403079 17.74515724 9.82422456 21.26882185 8.265625 24.8203125 C7.73908325 26.01829468 7.73908325 26.01829468 7.2019043 27.24047852 C6.50449834 28.82982242 5.80926331 30.42012113 5.11645508 32.01147461 C3.38159163 35.95083698 1.52089774 39.62015145 -0.73828125 43.29296875 C-1.41214825 45.11240965 -2.08378863 46.93271719 -2.7421875 48.7578125 C-5.08987518 54.73290782 -7.98862261 60.49425017 -10.73828125 66.29296875 C-12.13591217 69.25045561 -13.53127243 72.20900863 -14.92578125 75.16796875 C-15.26375732 75.88452637 -15.6017334 76.60108398 -15.94995117 77.33935547 C-18.28221644 82.29448222 -20.54784281 87.27321399 -22.73828125 92.29296875 C-23.06828125 91.30296875 -23.39828125 90.31296875 -23.73828125 89.29296875 C-25.14308277 85.7381046 -26.60207274 82.20513544 -28.05078125 78.66796875 C-28.44201172 77.70761719 -28.83324219 76.74726562 -29.23632812 75.7578125 C-31.38770176 70.49889917 -33.60515258 65.29496741 -36.02807617 60.15478516 C-36.73828125 58.29296875 -36.73828125 58.29296875 -36.73828125 55.29296875 C-36.07828125 55.29296875 -35.41828125 55.29296875 -34.73828125 55.29296875 C-34.485625 54.46925781 -34.23296875 53.64554688 -33.97265625 52.796875 C-32.56278278 48.79479747 -30.82548959 45.05004223 -28.98828125 41.23046875 C-28.26385427 39.70985859 -27.53989983 38.18902323 -26.81640625 36.66796875 C-26.28370117 35.55035156 -26.28370117 35.55035156 -25.74023438 34.41015625 C-24.37723473 31.53005563 -23.05787348 28.63067146 -21.73828125 25.73046875 C-20.74189915 23.58295311 -19.74161298 21.43724628 -18.73828125 19.29296875 C-18.42358887 18.61218262 -18.10889648 17.93139648 -17.78466797 17.22998047 C-16.76374362 15.03501757 -15.72201087 12.8509671 -14.67578125 10.66796875 C-14.35931641 9.98017334 -14.04285156 9.29237793 -13.71679688 8.58374023 C-10.58179403 2.14073003 -7.13036435 -0.11439087 0 0 Z " fill="#138746" transform="translate(90.73828125,-0.29296875)"/>
<path d="M0 0 C4.17832028 2.35030516 8.30641518 5.22054511 9.75 9.984375 C9.77496684 11.98421916 9.77720837 13.98456008 9.75 15.984375 C7.3321288 16.09263789 4.91912444 16.17177289 2.5 16.234375 C1.47712891 16.28464844 1.47712891 16.28464844 0.43359375 16.3359375 C-3.08605808 16.40428025 -4.80668091 16.38111065 -7.48046875 13.98828125 C-8.35638672 12.99634766 -8.35638672 12.99634766 -9.25 11.984375 C-13.00982637 11.19777025 -16.62296974 11.77536491 -20.25 12.984375 C-20.14386164 15.43662194 -20.14386164 15.43662194 -19.25 17.984375 C-15.4758269 19.89921282 -11.5729522 20.58426268 -7.4375 21.359375 C-1.13284926 22.67449607 4.70772885 23.97739702 9.43359375 28.6484375 C11.30046936 31.96117226 11.14746725 34.64363197 11.125 38.421875 C11.13660156 40.36900391 11.13660156 40.36900391 11.1484375 42.35546875 C10.59051512 47.43693831 8.98021664 49.90418478 5.1875 53.234375 C-0.25636713 57.14279243 -5.91336534 56.24598471 -12.4375 56.296875 C-14.26764648 56.34038086 -14.26764648 56.34038086 -16.13476562 56.38476562 C-23.04668058 56.43357328 -27.72841607 56.32276238 -33.25 51.984375 C-36.80151654 48.08571775 -37.43132068 44.13388227 -37.25 38.984375 C-34.8321288 38.87611211 -32.41912444 38.79697711 -30 38.734375 C-28.97712891 38.68410156 -28.97712891 38.68410156 -27.93359375 38.6328125 C-24.41717747 38.56453257 -22.60149681 38.71688372 -19.765625 40.875 C-18.25 42.984375 -18.25 42.984375 -18.25 44.984375 C-14.29 44.984375 -10.33 44.984375 -6.25 44.984375 C-6.25 44.324375 -6.25 43.664375 -6.25 42.984375 C-5.59 42.984375 -4.93 42.984375 -4.25 42.984375 C-4.25 41.334375 -4.25 39.684375 -4.25 37.984375 C-4.91 37.984375 -5.57 37.984375 -6.25 37.984375 C-6.25 37.324375 -6.25 36.664375 -6.25 35.984375 C-6.86746094 35.93539062 -7.48492187 35.88640625 -8.12109375 35.8359375 C-17.88190072 34.97425287 -26.86805927 34.10756729 -34.25 26.984375 C-37.04103179 22.52542931 -37.61087772 18.37280102 -36.6875 13.234375 C-35.62074128 9.45102576 -34.11079545 6.75577059 -31.25 3.984375 C-30.59 3.984375 -29.93 3.984375 -29.25 3.984375 C-29.25 3.324375 -29.25 2.664375 -29.25 1.984375 C-19.73442442 -2.21146935 -9.88836381 -4.36736068 0 0 Z " fill="#B52431" transform="translate(413.25,40.015625)"/>
<path d="M0 0 C5.94 0 11.88 0 18 0 C21.58276515 8.26791958 24.1031935 16.75819582 26.6328125 25.390625 C27.6783668 28.95508056 28.79415386 32.48581981 30 36 C31.34988059 33.40834458 32.45676385 30.86928238 33.3671875 28.09375 C33.73324097 26.98580078 33.73324097 26.98580078 34.10668945 25.85546875 C34.36023193 25.07816406 34.61377441 24.30085938 34.875 23.5 C35.13821045 22.70207031 35.4014209 21.90414062 35.67260742 21.08203125 C36.45091473 18.7221712 37.22568619 16.36117285 38 14 C38.76912513 11.66610304 39.53966153 9.33266997 40.3125 7 C40.61800781 6.071875 40.92351562 5.14375 41.23828125 4.1875 C42 2 42 2 43 0 C48.61 0 54.22 0 60 0 C58.48692027 5.29577905 56.88071632 10.439261 55.0625 15.625 C54.77109131 16.45805664 54.47968262 17.29111328 54.17944336 18.14941406 C49.68908922 30.85249469 44.81819199 43.41868131 40 56 C33.4 56 26.8 56 20 56 C8.05478504 24.38146713 8.05478504 24.38146713 3.8125 12.25 C3.53398193 11.4549707 3.25546387 10.65994141 2.96850586 9.84082031 C1.83790225 6.57406822 0.83926725 3.35706899 0 0 Z " fill="#B52533" transform="translate(157,40)"/>
<path d="M0 0 C0 4.95 0 9.9 0 15 C4.29 15 8.58 15 13 15 C13.09765625 25.05859375 13.09765625 25.05859375 13 28 C12 29 12 29 9.27734375 29.09765625 C8.17519531 29.08605469 7.07304687 29.07445313 5.9375 29.0625 C4.83277344 29.05347656 3.72804688 29.04445313 2.58984375 29.03515625 C1.73519531 29.02355469 0.88054687 29.01195313 0 29 C0.13810905 33.47944035 0.28677416 37.95846783 0.4375 42.4375 C0.47681641 43.71689453 0.51613281 44.99628906 0.55664062 46.31445312 C0.59853516 47.52939453 0.64042969 48.74433594 0.68359375 49.99609375 C0.72025146 51.12200928 0.75690918 52.2479248 0.79467773 53.40795898 C0.71218045 55.92853441 0.71218045 55.92853441 2 57 C4.29581781 57.07188471 6.57517069 56.99646432 8.87109375 56.9375 C11 57 11 57 13 58 C14.49180285 62.47540856 13.62201407 66.4307688 13 71 C9.27124612 71.14560195 5.54322566 71.23417043 1.8125 71.3125 C0.75740234 71.35439453 -0.29769531 71.39628906 -1.38476562 71.43945312 C-9.22747897 71.56315523 -9.22747897 71.56315523 -13.11328125 68.73046875 C-16.44708572 63.90577036 -17.31442021 60.46924503 -17.4140625 54.609375 C-17.43342865 53.90476135 -17.4527948 53.20014771 -17.4727478 52.47418213 C-17.53232735 50.23290961 -17.57884123 47.99158511 -17.625 45.75 C-17.66319979 44.22654062 -17.70225269 42.70310238 -17.7421875 41.1796875 C-17.83801018 37.45331894 -17.92212107 33.72679165 -18 30 C-19.299375 29.855625 -20.59875 29.71125 -21.9375 29.5625 C-25.875 29.125 -25.875 29.125 -27 28 C-27.07258946 25.81360547 -27.08373783 23.62499611 -27.0625 21.4375 C-27.05347656 20.23996094 -27.04445313 19.04242188 -27.03515625 17.80859375 C-27.02355469 16.88175781 -27.01195312 15.95492187 -27 15 C-22.545 14.505 -22.545 14.505 -18 14 C-17.67 10.37 -17.34 6.74 -17 3 C-14.54212344 2.49766027 -12.08374976 1.99803143 -9.625 1.5 C-8.57699219 1.28537109 -8.57699219 1.28537109 -7.5078125 1.06640625 C-2.2265625 0 -2.2265625 0 0 0 Z " fill="#B52532" transform="translate(362,25)"/>
<path d="M0 0 C7.48714295 0.54451949 14.48616553 2.30070325 20.0625 7.625 C22 10 22 10 22 12 C20.6696875 12.185625 20.6696875 12.185625 19.3125 12.375 C16.25997252 12.95094858 13.8434191 13.79154688 11 15 C9.00379834 15.67795528 7.00461299 16.34733531 5 17 C5 16.34 5 15.68 5 15 C3.98679687 14.92652344 3.98679687 14.92652344 2.953125 14.8515625 C2.06109375 14.77679688 1.1690625 14.70203125 0.25 14.625 C-1.07257813 14.52058594 -1.07257813 14.52058594 -2.421875 14.4140625 C-4.99066382 14.00149945 -6.75841015 13.28839043 -9 12 C-6.69 12 -4.38 12 -2 12 C-1.7834375 10.824375 -1.7834375 10.824375 -1.5625 9.625 C-1 7 -1 7 0 5 C1.32 5.33 2.64 5.66 4 6 C4 5.01 4 4.02 4 3 C3.01 3 2.02 3 1 3 C0.67 2.01 0.34 1.02 0 0 Z " fill="#B7323F" transform="translate(402,61)"/>
<path d="M0 0 C2.4178712 -0.10826289 4.83087556 -0.18739789 7.25 -0.25 C8.27287109 -0.30027344 8.27287109 -0.30027344 9.31640625 -0.3515625 C12.83282253 -0.41984243 14.64850319 -0.26749128 17.484375 1.890625 C19 4 19 4 19 6 C22.96 6 26.92 6 31 6 C31 6.33 31 6.66 31 7 C26.38 7.33 21.76 7.66 17 8 C17 8.66 17 9.32 17 10 C15.37373596 11.38232443 13.7074998 12.71937515 12 14 C13.32 14.33 14.64 14.66 16 15 C15.67 15.66 15.34 16.32 15 17 C10.61165213 16.48972699 7.49558954 15.75967595 4 13 C0.6272682 8.66049166 -0.21088906 5.53779041 0 0 Z " fill="#B22B37" transform="translate(376,79)"/>
<path d="M0 0 C1.32 0.66 2.64 1.32 4 2 C3.67 2.66 3.34 3.32 3 4 C4.32 4.33 5.64 4.66 7 5 C6.6875 7.375 6.6875 7.375 6 10 C2.79593538 12.13604308 2.00399253 12.24208908 -1.66796875 12.1953125 C-2.56064453 12.18886719 -3.45332031 12.18242188 -4.37304688 12.17578125 C-5.76620117 12.15064453 -5.76620117 12.15064453 -7.1875 12.125 C-8.12787109 12.11597656 -9.06824219 12.10695313 -10.03710938 12.09765625 C-12.35832968 12.07409056 -14.67903644 12.04119116 -17 12 C-17 11.34 -17 10.68 -17 10 C-17.99 9.67 -18.98 9.34 -20 9 C-18.74458443 6.48916886 -17.49936512 6.12874554 -15 5 C-15 4.34 -15 3.68 -15 3 C-11.51088401 1.25544201 -7.50258205 1.53762734 -3.65234375 1.28125 C-1.07994595 1.28948002 -1.07994595 1.28948002 0 0 Z " fill="#B51C2A" transform="translate(408,84)"/>
<path d="M0 0 C1.50559539 1.96382007 2.89131683 3.78263366 4 6 C6.01669827 7.13350534 6.01669827 7.13350534 8 8 C7.38125 8.144375 6.7625 8.28875 6.125 8.4375 C3.96741678 8.93152225 3.96741678 8.93152225 2 10 C1.34 9.67 0.68 9.34 0 9 C0.99 12.3 1.98 15.6 3 19 C-2 20 -2 20 -5 18.4375 C-8.20688867 15.83190295 -10.48230777 13.25818995 -13 10 C-10.79480277 8.8565644 -8.64455335 7.86774078 -6.3125 7 C-3.84572401 6.22765821 -3.84572401 6.22765821 -3 4 C-2.01 4.33 -1.02 4.66 0 5 C0 3.35 0 1.7 0 0 Z " fill="#B5303C" transform="translate(232,76)"/>
<path d="M0 0 C1.10408203 0.03383789 1.10408203 0.03383789 2.23046875 0.06835938 C4.02953842 0.12677073 5.82754753 0.21643663 7.625 0.3125 C6.72368538 6.40962829 3.5657915 10.65350424 -0.96484375 14.75 C-3.32730221 16.48126727 -4.79007315 17.37407125 -7.75 17.0625 C-8.28625 16.815 -8.8225 16.5675 -9.375 16.3125 C-8.055 15.9825 -6.735 15.6525 -5.375 15.3125 C-5.705 13.0025 -6.035 10.6925 -6.375 8.3125 C-5.715 8.3125 -5.055 8.3125 -4.375 8.3125 C-4.045 8.9725 -3.715 9.6325 -3.375 10.3125 C-1.395 9.3225 0.585 8.3325 2.625 7.3125 C2.295 5.9925 1.965 4.6725 1.625 3.3125 C-4.09568059 2.78284978 -4.09568059 2.78284978 -9.0625 5.1875 C-9.825625 5.88875 -10.58875 6.59 -11.375 7.3125 C-13.02297236 8.02412443 -14.68665408 8.70281953 -16.375 9.3125 C-16.705 9.6425 -17.035 9.9725 -17.375 10.3125 C-20.04558851 10.45365161 -22.69932238 10.35497107 -25.375 10.3125 C-24.385 9.9825 -23.395 9.6525 -22.375 9.3125 C-22.375 8.3225 -22.375 7.3325 -22.375 6.3125 C-20.48697917 6.21484375 -18.59895833 6.1171875 -16.7109375 6.01953125 C-14.07806101 5.40751495 -14.07806101 5.40751495 -11.625 2.78125 C-7.95777458 -0.45908111 -4.70966241 -0.27678848 0 0 Z " fill="#A92F38" transform="translate(262.375,78.6875)"/>
<path d="M0 0 C0.33 0 0.66 0 1 0 C1.14363672 4.44739008 1.28601092 8.89481831 1.42724609 13.34228516 C1.47540668 14.8533638 1.52390439 16.36443175 1.57275391 17.87548828 C1.64315295 20.05498531 1.7123153 22.23451872 1.78125 24.4140625 C1.82314453 25.7232666 1.86503906 27.0324707 1.90820312 28.38134766 C1.98951502 31.58667993 2 34.79363654 2 38 C6.29 38 10.58 38 15 38 C15 27.44 15 16.88 15 6 C15.33 6 15.66 6 16 6 C16 17.22 16 28.44 16 40 C10.72 40 5.44 40 0 40 C0 26.8 0 13.6 0 0 Z " fill="#941D27" transform="translate(277,56)"/>
<path d="M0 0 C0.33 0 0.66 0 1 0 C1.33 11.55 1.66 23.1 2 35 C6.29 35 10.58 35 15 35 C15 25.43 15 15.86 15 6 C15.33 6 15.66 6 16 6 C16 16.23 16 26.46 16 37 C10.72 37 5.44 37 0 37 C0 24.79 0 12.58 0 0 Z " fill="#921921" transform="translate(315,59)"/>
<path d="M0 0 C4.27343092 -0.36629408 6.48812804 0.59185923 10 3 C9.67 3.99 9.34 4.98 9 6 C7.68 5.67 6.36 5.34 5 5 C4.34 7.31 3.68 9.62 3 12 C0.69 12 -1.62 12 -4 12 C-4 11.34 -4 10.68 -4 10 C-4.99 10 -5.98 10 -7 10 C-6.67 9.01 -6.34 8.02 -6 7 C-3.66666667 6 -1.33333333 5 1 4 C1.33 3.01 1.66 2.02 2 1 C1.34 0.67 0.68 0.34 0 0 Z " fill="#B31D2B" transform="translate(397,61)"/>
<path d="M0 0 C4.62 0 9.24 0 14 0 C13.67 1.32 13.34 2.64 13 4 C13.33 4.66 13.66 5.32 14 6 C13.01 6.33 12.02 6.66 11 7 C9.30117552 9.49759982 9.30117552 9.49759982 8 12 C7.01 11.67 6.02 11.34 5 11 C5.66 9.02 6.32 7.04 7 5 C6.236875 5.226875 5.47375 5.45375 4.6875 5.6875 C3.800625 5.790625 2.91375 5.89375 2 6 C0.1875 4.5625 0.1875 4.5625 -1 3 C-0.67 2.01 -0.34 1.02 0 0 Z " fill="#B21E2B" transform="translate(160,41)"/>
<path d="M0 0 C3.63 0 7.26 0 11 0 C9.125 5.75 9.125 5.75 8 8 C7.34 8 6.68 8 6 8 C6 8.66 6 9.32 6 10 C3.25 10.6875 3.25 10.6875 0 11 C-2.375 9.5625 -2.375 9.5625 -4 8 C-2.35 7.34 -0.7 6.68 1 6 C0.67 4.02 0.34 2.04 0 0 Z " fill="#B31E2A" transform="translate(396,40)"/>
<path d="M0 0 C4.43658969 2.21829484 6.67773363 4.61349686 9 9 C9 10.98 9 12.96 9 15 C4.05 15 -0.9 15 -6 15 C-6 14.01 -6 13.02 -6 12 C-1.71 12.66 2.58 13.32 7 14 C6.67 12.35 6.34 10.7 6 9 C5.34 8.67 4.68 8.34 4 8 C3.67 8.99 3.34 9.98 3 11 C2.67 11 2.34 11 2 11 C2 8.66666667 2 6.33333333 2 4 C1.36525925 2.65117592 0.70151152 1.3153341 0 0 Z " fill="#AE424B" transform="translate(414,41)"/>
<path d="M0 0 C5.61 0 11.22 0 17 0 C17.33 1.98 17.66 3.96 18 6 C15.525 5.505 15.525 5.505 13 5 C13 4.34 13 3.68 13 3 C10.36 2.67 7.72 2.34 5 2 C4.896875 2.61875 4.79375 3.2375 4.6875 3.875 C4 6 4 6 1 8 C0.67 5.36 0.34 2.72 0 0 Z " fill="#B53643" transform="translate(277,40)"/>
<path d="M0 0 C10.56 0 21.12 0 32 0 C32.495 7.425 32.495 7.425 33 15 C32.01 14.67 31.02 14.34 30 14 C29.9727585 12.58344207 29.95349533 11.16672955 29.9375 9.75 C29.92589844 8.96109375 29.91429687 8.1721875 29.90234375 7.359375 C30 5 30 5 31 1 C20.77 1 10.54 1 0 1 C0 0.67 0 0.34 0 0 Z " fill="#A93F45" transform="translate(125,81)"/>
<path d="M0 0 C2.31 0.66 4.62 1.32 7 2 C6.34 4.31 5.68 6.62 5 9 C2.36 8.67 -0.28 8.34 -3 8 C-2.25 2.25 -2.25 2.25 0 0 Z " fill="#B8252F" transform="translate(192,87)"/>
<path d="M0 0 C0.7425 0.350625 1.485 0.70125 2.25 1.0625 C5.1322726 2.04509293 6.21176345 2.0326802 9 1 C8.42415568 3.38564077 7.77772405 5.66682784 7 8 C7.33 8.66 7.66 9.32 8 10 C6.35 10.33 4.7 10.66 3 11 C0 4.5 0 4.5 0 0 Z " fill="#B51C29" transform="translate(159,44)"/>
<path d="M0 0 C5.94 0 11.88 0 18 0 C21 8 21 8 21 10 C20.01 9.67 19.02 9.34 18 9 C17.67 6.36 17.34 3.72 17 1 C16.15695313 1.0721875 15.31390625 1.144375 14.4453125 1.21875 C13.34960938 1.3115625 12.25390625 1.404375 11.125 1.5 C9.48917969 1.63921875 9.48917969 1.63921875 7.8203125 1.78125 C6.21670436 1.90562958 4.60842449 2 3 2 C2.34 2.66 1.68 3.32 1 4 C0.67 2.68 0.34 1.36 0 0 Z " fill="#AF4F5A" transform="translate(157,40)"/>
<path d="M0 0 C1.06863281 0.01804688 2.13726562 0.03609375 3.23828125 0.0546875 C4.04652344 0.07789063 4.85476563 0.10109375 5.6875 0.125 C5.6875 0.785 5.6875 1.445 5.6875 2.125 C4.70007813 2.24617188 3.71265625 2.36734375 2.6953125 2.4921875 C1.41398437 2.65976562 0.13265625 2.82734375 -1.1875 3 C-3.10175781 3.24363281 -3.10175781 3.24363281 -5.0546875 3.4921875 C-8.38414227 3.82377473 -8.38414227 3.82377473 -10.3125 6.125 C-12.4375 5.75 -12.4375 5.75 -14.3125 5.125 C-10.31674314 0.49833416 -5.91004784 -0.12989116 0 0 Z " fill="#A93C46" transform="translate(311.3125,37.875)"/>
<path d="M0 0 C0.66 0 1.32 0 2 0 C2.02685938 2.14576637 2.04633088 4.29162645 2.0625 6.4375 C2.07410156 7.63246094 2.08570313 8.82742187 2.09765625 10.05859375 C2 13 2 13 1 14 C-0.85287502 14.07226502 -2.70833878 14.0838122 -4.5625 14.0625 C-5.57441406 14.05347656 -6.58632813 14.04445313 -7.62890625 14.03515625 C-8.41136719 14.02355469 -9.19382812 14.01195312 -10 14 C-10 13.34 -10 12.68 -10 12 C-5.545 11.505 -5.545 11.505 -1 11 C-0.67 7.37 -0.34 3.74 0 0 Z " fill="#B2474E" transform="translate(345,28)"/>
<path d="M0 0 C0.66 0.66 1.32 1.32 2 2 C1.34 2 0.68 2 0 2 C0 2.66 0 3.32 0 4 C1.175625 4.2165625 1.175625 4.2165625 2.375 4.4375 C5 5 5 5 7 6 C7 6.66 7 7.32 7 8 C4.3125 8.8125 4.3125 8.8125 1 9 C-1.875 6.6875 -1.875 6.6875 -4 4 C-4 3.34 -4 2.68 -4 2 C-2.68 1.34 -1.36 0.68 0 0 Z " fill="#B22E3A" transform="translate(351,87)"/>
<path d="M0 0 C0.99 0 1.98 0 3 0 C3.33 1.65 3.66 3.3 4 5 C4.66 5 5.32 5 6 5 C6 5.66 6 6.32 6 7 C-0.93 7 -7.86 7 -15 7 C-15 6.67 -15 6.34 -15 6 C-10.05 5.67 -5.1 5.34 0 5 C-0.33 3.68 -0.66 2.36 -1 1 C-0.67 0.67 -0.34 0.34 0 0 Z " fill="#152C4F" transform="translate(58,89)"/>
<path d="M0 0 C0.33 0.66 0.66 1.32 1 2 C-1.22484353 5.51291084 -3.09734276 6.66488042 -7 8 C-7.33 8.33 -7.66 8.66 -8 9 C-10.67058851 9.14115161 -13.32432238 9.04247107 -16 9 C-15.01 8.67 -14.02 8.34 -13 8 C-13 7.01 -13 6.02 -13 5 C-11.783125 4.9175 -10.56625 4.835 -9.3125 4.75 C-5.21534129 4.26241628 -2.99860092 2.90489464 0 0 Z " fill="#B53A47" transform="translate(253,80)"/>
<path d="M0 0 C2.875 -0.125 2.875 -0.125 6 0 C6.66 0.66 7.32 1.32 8 2 C6.25 6.875 6.25 6.875 4 8 C1.10067643 5.60490662 0.49831724 3.68754757 0 0 Z " fill="#2B3E5D" transform="translate(0,1)"/>
<path d="M0 0 C2.125 0.9375 2.125 0.9375 4 2 C2.02 2.99 2.02 2.99 0 4 C0.33 4.66 0.66 5.32 1 6 C-0.32 6 -1.64 6 -3 6 C-4.04892238 7.63631892 -5.04906703 9.30485863 -6 11 C-6.99 11.33 -7.98 11.66 -9 12 C-7.72232235 7.00544191 -5.87088216 4.38702189 -2 1 C-1.34 0.67 -0.68 0.34 0 0 Z " fill="#3E8F62" transform="translate(85,0)"/>
<path d="M0 0 C1.98 0 3.96 0 6 0 C5.67 1.32 5.34 2.64 5 4 C4.34 4 3.68 4 3 4 C2.67 5.32 2.34 6.64 2 8 C0.68 7.67 -0.64 7.34 -2 7 C-1.125 2.25 -1.125 2.25 0 0 Z " fill="#B21D2B" transform="translate(380,80)"/>
<path d="M0 0 C0.99 0.33 1.98 0.66 3 1 C3.33 1.99 3.66 2.98 4 4 C-2.14285714 9.57142857 -2.14285714 9.57142857 -7 10 C-7.33 9.34 -7.66 8.68 -8 8 C-7.236875 7.79375 -6.47375 7.5875 -5.6875 7.375 C-2.17770897 5.57929296 -1.47400219 3.56863688 0 0 Z " fill="#B33947" transform="translate(418,86)"/>
<path d="M0 0 C2.45933991 0.11369211 4.9167909 0.24042651 7.375 0.375 C8.07367188 0.4059375 8.77234375 0.436875 9.4921875 0.46875 C14.7734375 0.7734375 14.7734375 0.7734375 17 3 C12.71 3 8.42 3 4 3 C3.67 3.66 3.34 4.32 3 5 C3 4.01 3 3.02 3 2 C2.01 1.67 1.02 1.34 0 1 C0 0.67 0 0.34 0 0 Z " fill="#A6202B" transform="translate(293,49)"/>
<path d="M0 0 C0.99 0 1.98 0 3 0 C3.33 0.99 3.66 1.98 4 3 C6.32269959 4.24498609 6.32269959 4.24498609 9.0625 5.1875 C9.98160156 5.53167969 10.90070313 5.87585938 11.84765625 6.23046875 C12.55792969 6.48441406 13.26820313 6.73835938 14 7 C14 7.66 14 8.32 14 9 C9.80063066 9.33565119 7.64904586 8.5468621 4.1875 6.1875 C3.39730469 5.66542969 2.60710937 5.14335938 1.79296875 4.60546875 C1.20128906 4.07566406 0.60960937 3.54585938 0 3 C0 2.01 0 1.02 0 0 Z " fill="#B5555E" transform="translate(379,64)"/>
<path d="M0 0 C0.66 0 1.32 0 2 0 C2 2.64 2 5.28 2 8 C3.11375 7.95875 4.2275 7.9175 5.375 7.875 C9 8 9 8 11 10 C7.37 10 3.74 10 0 10 C0 6.7 0 3.4 0 0 Z " fill="#9C2630" transform="translate(335,42)"/>
<path d="M0 0 C0.99 0.33 1.98 0.66 3 1 C0.10933941 10.59453303 0.10933941 10.59453303 -3 14 C-3.33 12.02 -3.66 10.04 -4 8 C-3.34 8 -2.68 8 -2 8 C-1.855625 7.236875 -1.71125 6.47375 -1.5625 5.6875 C-1 3 -1 3 0 0 Z " fill="#49986D" transform="translate(99,15)"/>
<path d="M0 0 C0.66 0 1.32 0 2 0 C3.06099328 1.73835057 4.09826483 3.49119804 5.125 5.25 C5.70507812 6.22453125 6.28515625 7.1990625 6.8828125 8.203125 C8 11 8 11 7.1796875 13.359375 C6.79039063 13.90078125 6.40109375 14.4421875 6 15 C4.55722368 12.15344131 3.18824896 9.28360325 1.875 6.375 C1.52179687 5.59898438 1.16859375 4.82296875 0.8046875 4.0234375 C0 2 0 2 0 0 Z " fill="#545F78" transform="translate(29,71)"/>
<path d="M0 0 C0.680625 -0.02578125 1.36125 -0.0515625 2.0625 -0.078125 C4 0.25 4 0.25 7 3.25 C2.05 3.25 -2.9 3.25 -8 3.25 C-6.33255594 -0.08488811 -3.39287558 0.07711081 0 0 Z " fill="#A91822" transform="translate(186,92.75)"/>
<path d="M0 0 C4.95 0 9.9 0 15 0 C15 0.33 15 0.66 15 1 C11.37 1 7.74 1 4 1 C3.34 3.31 2.68 5.62 2 8 C1.34 7.34 0.68 6.68 0 6 C0 4.02 0 2.04 0 0 Z " fill="#B8535B" transform="translate(376,79)"/>
<path d="M0 0 C5.61 0 11.22 0 17 0 C16.67 1.98 16.34 3.96 16 6 C15.67 4.68 15.34 3.36 15 2 C10.71 1.67 6.42 1.34 2 1 C2 1.66 2 2.32 2 3 C1.01 3.33 0.02 3.66 -1 4 C-0.67 2.68 -0.34 1.36 0 0 Z " fill="#B05058" transform="translate(200,40)"/>
<path d="M0 0 C0.99 0 1.98 0 3 0 C2.67 0.99 2.34 1.98 2 3 C1.92342951 4.1920643 1.92342951 4.1920643 2.9375 5.8125 C3.96315004 7.92413244 4.68973502 9.67301266 5 12 C4.34 12.66 3.68 13.32 3 14 C-1.07877462 5.96498906 -1.07877462 5.96498906 -0.75 1.9375 C-0.5025 1.298125 -0.255 0.65875 0 0 Z " fill="#4B5874" transform="translate(18,40)"/>
<path d="M0 0 C3.16717283 1.58358642 4.73268318 2.45263699 6.3125 5.6875 C6.539375 6.450625 6.76625 7.21375 7 8 C6.01 8.495 6.01 8.495 5 9 C5 8.34 5 7.68 5 7 C3.68 7.33 2.36 7.66 1 8 C0.02391783 5.07175348 -0.08226668 3.04386724 0 0 Z " fill="#B23A43" transform="translate(322,41)"/>
<path d="M0 0 C0.20086443 3.71599191 0.1519437 4.77208445 -2 8 C-2.99 8 -3.98 8 -5 8 C-5 7.34 -5 6.68 -5 6 C-5.66 5.34 -6.32 4.68 -7 4 C-6.34 4 -5.68 4 -5 4 C-4.67 3.01 -4.34 2.02 -4 1 C-1 0 -1 0 0 0 Z " fill="#AB1F2B" transform="translate(390,41)"/>
<path d="M0 0 C1.32 0 2.64 0 4 0 C4 0.66 4 1.32 4 2 C4.66 2.33 5.32 2.66 6 3 C4 5 4 5 2.0546875 5.1953125 C0.03645833 5.13020833 -1.98177083 5.06510417 -4 5 C-2.25 2.5 -2.25 2.5 0 0 Z " fill="#AE2E3A" transform="translate(226,43)"/>
<path d="M0 0 C0.66 0 1.32 0 2 0 C3.29676812 4.61073111 2.71109139 8.33840089 2 13 C0.68 12.67 -0.64 12.34 -2 12 C-1.34 12 -0.68 12 0 12 C0 8.04 0 4.08 0 0 Z " fill="#A13D42" transform="translate(373,83)"/>
<path d="M0 0 C1.65 0.33 3.3 0.66 5 1 C5 2.65 5 4.3 5 6 C2 6 2 6 -1 5 C-0.67 3.35 -0.34 1.7 0 0 Z " fill="#AF1C29" transform="translate(194,83)"/>
<path d="M0 0 C-0.33 1.98 -0.66 3.96 -1 6 C-1.66 6 -2.32 6 -3 6 C-3.33 6.66 -3.66 7.32 -4 8 C-5.25664978 5.09399739 -6 3.20395416 -6 0 C-3.50907189 -1.24546405 -2.58919267 -0.7767578 0 0 Z " fill="#B84451" transform="translate(175,72)"/>
<path d="M0 0 C3.96 0 7.92 0 12 0 C12.33 0.66 12.66 1.32 13 2 C3.58997722 3.33257403 3.58997722 3.33257403 -1 2 C-0.67 1.34 -0.34 0.68 0 0 Z " fill="#A33943" transform="translate(395,38)"/>
<path d="M0 0 C0.66 0.33 1.32 0.66 2 1 C1.67 1.66 1.34 2.32 1 3 C0.34 3 -0.32 3 -1 3 C-1 4.32 -1 5.64 -1 7 C-2.5 9.25 -2.5 9.25 -4 11 C-4.66 10.67 -5.32 10.34 -6 10 C-5.40312566 6.65750371 -4.26396123 4.53563658 -2 2 C-1.34 2 -0.68 2 0 2 C0 1.34 0 0.68 0 0 Z " fill="#B75460" transform="translate(384,42)"/>
<path d="M0 0 C4 2 4 2 6 4 C5.01 4.99 4.02 5.98 3 7 C3.33 7.66 3.66 8.32 4 9 C3.01 9 2.02 9 1 9 C0.67 6.03 0.34 3.06 0 0 Z " fill="#AB1C27" transform="translate(378,52)"/>
<path d="M0 0 C1.65 0 3.3 0 5 0 C5 1.32 5 2.64 5 4 C4.01 4 3.02 4 2 4 C1.34 5.32 0.68 6.64 0 8 C-1.125 2.25 -1.125 2.25 0 0 Z " fill="#B11D28" transform="translate(210,42)"/>
<path d="M0 0 C0.66 0.99 1.32 1.98 2 3 C1.67 3.66 1.34 4.32 1 5 C0.34 5 -0.32 5 -1 5 C-1 7.31 -1 9.62 -1 12 C-1.99 12.495 -1.99 12.495 -3 13 C-3.66 12.34 -4.32 11.68 -5 11 C-3.35 7.37 -1.7 3.74 0 0 Z " fill="#4D976C" transform="translate(66,32)"/>
<path d="M0 0 C0.33 0 0.66 0 1 0 C1 3.3 1 6.6 1 10 C-2.96 10 -6.92 10 -11 10 C-9 9 -7 8 -5 7 C-2.375 7.9375 -2.375 7.9375 0 9 C0 6.03 0 3.06 0 0 Z " fill="#A01C29" transform="translate(373,42)"/>
<path d="M0 0 C2.64 0.33 5.28 0.66 8 1 C4.25 4 4.25 4 2 4 C1.67 4.99 1.34 5.98 1 7 C0.34 6.67 -0.32 6.34 -1 6 C-0.67 4.02 -0.34 2.04 0 0 Z " fill="#BA4955" transform="translate(294,51)"/>
<path d="M0 0 C0.99 0 1.98 0 3 0 C2.55090939 1.48199902 2.09043436 2.96055236 1.625 4.4375 C1.36976562 5.26121094 1.11453125 6.08492187 0.8515625 6.93359375 C0 9 0 9 -2 10 C-2 7.69 -2 5.38 -2 3 C-1.34 3 -0.68 3 0 3 C0 2.01 0 1.02 0 0 Z " fill="#4E966C" transform="translate(93,29)"/>
<path d="M0 0 C0.99 0.33 1.98 0.66 3 1 C3.33 4.3 3.66 7.6 4 11 C1.73030256 8.73030256 1.00868171 7.02604513 0 4 C0 2.68 0 1.36 0 0 Z " fill="#BD5963" transform="translate(159,44)"/>
<path d="M0 0 C0.33 0.66 0.66 1.32 1 2 C1.66 2 2.32 2 3 2 C3.33 3.65 3.66 5.3 4 7 C4.99 7.33 5.98 7.66 7 8 C6.01 9.32 5.02 10.64 4 12 C3.32645501 10.56570999 2.66140299 9.12742943 2 7.6875 C1.62875 6.88699219 1.2575 6.08648437 0.875 5.26171875 C0 3 0 3 0 0 Z " fill="#4D5978" transform="translate(5,13)"/>
<path d="M0 0 C0.99 0 1.98 0 3 0 C2.745504 1.48206495 2.47088238 2.96068615 2.1875 4.4375 C2.03667969 5.26121094 1.88585937 6.08492187 1.73046875 6.93359375 C1.48941406 7.61550781 1.24835938 8.29742187 1 9 C0.01 9.33 -0.98 9.66 -2 10 C-1.34 6.7 -0.68 3.4 0 0 Z " fill="#B2444E" transform="translate(196,50)"/>
<path d="M0 0 C0.99 0.33 1.98 0.66 3 1 C1.52307692 6.66153846 1.52307692 6.66153846 -1.125 8.375 C-1.74375 8.58125 -2.3625 8.7875 -3 9 C-2.67 7.35 -2.34 5.7 -2 4 C-1.34 4 -0.68 4 0 4 C0 2.68 0 1.36 0 0 Z " fill="#AC1C29" transform="translate(197,55)"/>
<path d="M0 0 C1.98 0.99 1.98 0.99 4 2 C4 4.64 4 7.28 4 10 C2 9 2 9 0.875 6.6875 C0 4 0 4 0 0 Z " fill="#505D79" transform="translate(25,60)"/>
<path d="M0 0 C0.33 0.66 0.66 1.32 1 2 C0.06421005 4.35981813 -0.93347808 6.69631264 -2 9 C-2.66 8.34 -3.32 7.68 -4 7 C-4 5.68 -4 4.36 -4 3 C-3.34 3 -2.68 3 -2 3 C-2 2.34 -2 1.68 -2 1 C-1.34 0.67 -0.68 0.34 0 0 Z " fill="#3F8F61" transform="translate(108,0)"/>
<path d="M0 0 C2 4 2 4 2 7 C0.35 7.66 -1.3 8.32 -3 9 C-2.01 6.03 -1.02 3.06 0 0 Z " fill="#5CA57C" transform="translate(60,44)"/>
<path d="M0 0 C0.33 0.66 0.66 1.32 1 2 C-0.32 3.32 -1.64 4.64 -3 6 C-3 5.34 -3 4.68 -3 4 C-3.99 3.67 -4.98 3.34 -6 3 C-3.8614515 0.8614515 -2.86724686 0.57344937 0 0 Z " fill="#B43B4B" transform="translate(198,89)"/>
<path d="M0 0 C2 1 2 1 3.1875 3.375 C4 6 4 6 3 9 C3 8.34 3 7.68 3 7 C1.68 6.34 0.36 5.68 -1 5 C-0.34 4.67 0.32 4.34 1 4 C0.67 2.68 0.34 1.36 0 0 Z " fill="#556780" transform="translate(44,32)"/>
<path d="M0 0 C0.99 0.33 1.98 0.66 3 1 C3 2.98 3 4.96 3 7 C1.125 7.625 1.125 7.625 -1 8 C-1.66 7.34 -2.32 6.68 -3 6 C-1.35 6 0.3 6 2 6 C1.34 4.02 0.68 2.04 0 0 Z " fill="#C65E69" transform="translate(252,55)"/>
<path d="M0 0 C2 3 2 3 2 5 C-0.97 4.67 -3.94 4.34 -7 4 C-7 3.67 -7 3.34 -7 3 C-5.35 3 -3.7 3 -2 3 C-2 2.34 -2 1.68 -2 1 C-1.34 0.67 -0.68 0.34 0 0 Z " fill="#C04D53" transform="translate(404,47)"/>
<path d="M0 0 C0.66 0 1.32 0 2 0 C2.66 2.64 3.32 5.28 4 8 C3.01 7.67 2.02 7.34 1 7 C0.67 4.69 0.34 2.38 0 0 Z " fill="#AE4650" transform="translate(174,42)"/>
<path d="M0 0 C-1.65 1.32 -3.3 2.64 -5 4 C-7.475 3.01 -7.475 3.01 -10 2 C-10 1.67 -10 1.34 -10 1 C-6.59437148 0.22157062 -3.49234244 -0.09978121 0 0 Z " fill="#B84D5A" transform="translate(358,26)"/>
<path d="M0 0 C1.32 0 2.64 0 4 0 C4 0.66 4 1.32 4 2 C1.64561267 3.42944945 0.51967567 4.08661261 -2.25 3.625 C-2.8275 3.41875 -3.405 3.2125 -4 3 C-2.68 2.67 -1.36 2.34 0 2 C0 1.34 0 0.68 0 0 Z " fill="#B24950" transform="translate(257,92)"/>
<path d="M0 0 C2.70272533 2.87164566 3.94791837 4.30991841 4.25 8.3125 C4.1675 9.199375 4.085 10.08625 4 11 C1.55160412 7.32740617 0 4.45351799 0 0 Z " fill="#C56C75" transform="translate(172,80)"/>
<path d="M0 0 C0.66 0 1.32 0 2 0 C2.103125 0.639375 2.20625 1.27875 2.3125 1.9375 C2.539375 2.618125 2.76625 3.29875 3 4 C3.99 4.33 4.98 4.66 6 5 C5.01 5.66 4.02 6.32 3 7 C1.68 5.68 0.36 4.36 -1 3 C-0.67 2.01 -0.34 1.02 0 0 Z " fill="#A71823" transform="translate(230,58)"/>
<path d="" fill="#FFFFFF" transform="translate(0,0)"/>
<path d="" fill="#FFFFFF" transform="translate(0,0)"/>
<path d="" fill="#FFFFFF" transform="translate(0,0)"/>
<path d="" fill="#FFFFFF" transform="translate(0,0)"/>
<path d="" fill="#FFFFFF" transform="translate(0,0)"/>
<path d="" fill="#FFFFFF" transform="translate(0,0)"/>
<path d="" fill="#FFFFFF" transform="translate(0,0)"/>
<path d="" fill="#FFFFFF" transform="translate(0,0)"/>
</svg>
